<svg xmlns="http://www.w3.org/2000/svg" viewBox="0 0 310 153.19"><defs><style>.cls-1{fill:#ffb612;}.cls-2{fill:#472d11;}.cls-3{fill:#fff;}</style></defs><title>Asset 1</title><g id="Layer_2" data-name="Layer 2"><g id="Lager_1" data-name="Lager 1"><path class="cls-1" d="M243.11,49.79V152.58l66.89-31Z"/><path d="M242,50.09,195.13,27.38l0,0L138.53,0l-7.61,15.69L187.5,43.12l-3.38,7H17.44V67.52H131.79V79.28H0V96.72H131.79v11.37H12.17v16.6H131.79v11.67H34.47v16.84H136.66v-.1H243.11v-103Zm-26.61,61.7a17.95,17.95,0,1,1,17.95-17.95A17.95,17.95,0,0,1,215.37,111.79Z"/><circle class="cls-2" cx="215.37" cy="93.84" r="15.91"/><circle cx="215.37" cy="93.84" r="9.79"/><circle class="cls-3" cx="219.45" cy="89.76" r="4.08"/></g></g></svg>